<?xml version="1.0" encoding="UTF-8"?>
<svg width="55px" height="30px" viewBox="0 0 55 30" version="1.1" xmlns="http://www.w3.org/2000/svg" xmlns:xlink="http://www.w3.org/1999/xlink">
    <!-- Generator: Sketch 50.2 (55047) - http://www.bohemiancoding.com/sketch -->
    <title>Group</title>
    <desc>Created with Sketch.</desc>
    <defs></defs>
    <g id="Page-1" stroke="none" stroke-width="1" fill="none" fill-rule="evenodd">
        <g id="Artboard" transform="translate(-36.000000, -50.000000)">
            <g id="Group" transform="translate(36.000000, 50.000000)">
                <rect id="Rectangle" stroke="#000000" fill="#FFFFFF" x="0.5" y="0.5" width="54" height="29"></rect>
                <path d="M20.9944196,5.7265625 L21.6573661,6.05803571 C21.7555808,6.09895854 22.6190395,6.11941964 24.2477679,6.11941964 C24.6078887,6.11941964 25.1480619,6.1112352 25.8683036,6.09486607 C26.5885453,6.07849694 27.1287184,6.0703125 27.4888393,6.0703125 C27.7834836,6.0703125 28.2233974,6.07235861 28.8085938,6.07645089 C29.3937901,6.08054318 29.8337039,6.08258929 30.1283482,6.08258929 L33.7254464,6.08258929 C33.7745538,6.08258929 33.8604905,6.0846354 33.9832589,6.08872768 C34.1060274,6.09281996 34.1899179,6.09281996 34.234933,6.08872768 C34.2799481,6.0846354 34.3454237,6.07235873 34.4313616,6.05189732 C34.5172995,6.03143591 34.5889134,5.99460592 34.6462054,5.94140625 C34.7034973,5.88820658 34.7648806,5.81659271 34.8303571,5.7265625 L35.3459821,5.71428571 C35.3787204,5.71428571 35.4360115,5.71633182 35.5178571,5.72042411 C35.5997028,5.72451639 35.6569939,5.7265625 35.6897321,5.7265625 C35.7061013,6.64323375 35.7142857,8.01822 35.7142857,9.8515625 C35.7142857,10.5063277 35.6938246,10.9523798 35.6529018,11.1897321 C35.3337038,11.304316 35.0554327,11.377976 34.8180804,11.4107143 C34.6134662,11.0505934 34.3924863,10.5267892 34.1551339,9.83928571 C34.1305802,9.76562463 34.0855658,9.56919802 34.0200893,9.25 C33.9546128,8.93080198 33.8952756,8.63002373 33.8420759,8.34765625 C33.7888762,8.06528877 33.7581846,7.92001492 33.75,7.91183036 C33.7008926,7.84635384 33.651786,7.79520108 33.6026786,7.75837054 C33.5535712,7.72153999 33.4901418,7.69698667 33.4123884,7.68470982 C33.334635,7.67243297 33.2814362,7.66220242 33.2527902,7.65401786 C33.2241442,7.64583329 33.1504842,7.64378718 33.031808,7.64787946 C32.9131318,7.65197175 32.8456102,7.65401786 32.8292411,7.65401786 C32.6901035,7.65401786 32.4179708,7.65197175 32.0128348,7.64787946 C31.6076989,7.64378718 31.3028284,7.64174107 31.0982143,7.64174107 C30.8936002,7.64174107 30.631698,7.64992551 30.3125,7.66629464 C29.993302,7.68266377 29.7027543,7.7072171 29.4408482,7.73995536 C29.3671871,8.4029051 29.3344494,8.95944715 29.3426339,9.40959821 C29.3426339,10.1789473 29.3508184,11.766729 29.3671875,14.1729911 C29.3835566,16.5792531 29.3917411,18.4412136 29.3917411,19.7589286 C29.3917411,19.8898816 29.3815105,20.1824754 29.3610491,20.6367188 C29.3405877,21.0909621 29.3405877,21.4654003 29.3610491,21.7600446 C29.3815105,22.054689 29.4326633,22.3370522 29.5145089,22.6071429 C29.8418915,22.7790187 30.3493269,22.9529381 31.0368304,23.1289063 C31.7243338,23.3048744 32.2154003,23.4583327 32.5100446,23.5892857 C32.5509675,23.9166683 32.5714286,24.1212794 32.5714286,24.203125 C32.5714286,24.3177089 32.5591519,24.4363833 32.5345982,24.5591518 L32.1171875,24.5714286 C31.4951606,24.5877977 30.6030564,24.5550599 29.4408482,24.4732143 C28.27864,24.3913686 27.4315503,24.3504464 26.8995536,24.3504464 C26.4903253,24.3504464 25.8724,24.3872764 25.0457589,24.4609375 C24.2191179,24.5345986 23.5971003,24.5714286 23.1796875,24.5714286 C23.1551338,24.1540158 23.1428571,23.9412203 23.1428571,23.9330357 L23.1428571,23.8225446 C23.2819947,23.6015614 23.5336663,23.4255959 23.8978795,23.2946429 C24.2620926,23.1636898 24.6651764,23.0450154 25.1071429,22.9386161 C25.5491094,22.8322167 25.8683026,22.7217268 26.0647321,22.6071429 C26.2202389,22.2633911 26.2979911,20.6960705 26.2979911,17.9051339 C26.2979911,17.0784929 26.2857144,15.8385499 26.2611607,14.1852679 C26.236607,12.5319858 26.2243304,11.2920428 26.2243304,10.4654018 L26.2243304,9.02901786 C26.2243304,9.01264873 26.2263765,8.9492193 26.2304688,8.83872768 C26.234561,8.72823605 26.2366071,8.62593053 26.2366071,8.53180804 C26.2366071,8.43768554 26.2325149,8.33333391 26.2243304,8.21875 C26.2161458,8.10416609 26.2038691,8.00595279 26.1875,7.92410714 C26.1711309,7.8422615 26.1506698,7.7849704 26.1261161,7.75223214 C26.0360859,7.65401737 25.3731461,7.60491071 24.1372768,7.60491071 C23.8671861,7.60491071 23.4866096,7.65401737 22.9955357,7.75223214 C22.5044618,7.85044692 22.1770842,7.95684467 22.0133929,8.07142857 C21.8578861,8.17782791 21.7187506,8.47451393 21.5959821,8.96149554 C21.4732137,9.44847714 21.3443087,9.90271367 21.2092634,10.3242188 C21.0742181,10.7457238 20.9002987,10.9646577 20.6875,10.9810268 C20.3437483,10.7682281 20.1145839,10.5881704 20,10.4408482 L20,5.73883929 L20.9944196,5.7265625 Z" id="text-height---FontAwesome" fill="#FFA046"></path>
            </g>
        </g>
    </g>
</svg>